# xmcd
#
# Track frame offsets: 
#        150
#        28130
#        44950
#        71818
#        90902
#        120486
#        136974
#        152358
#        178282
#        195998
#        224378
#        249830
#
# Disc length: 3676 seconds
#
# Revision: 0
# Processed by: cddbd v1.5.2PL0 Copyright (c) Steve Scherf et al.
# Submitted via: ExactAudioCopyFreeDBPlugin 1.0
#
DISCID=a50e5a0c
DTITLE=群星 - DTS 下半夜2舞曲
DYEAR=2010
DGENRE=Acid
TTITLE0=爱成了负累
TTITLE1=迷茫的爱
TTITLE2=最幸福的人
TTITLE3=哥唱的是寂寞
TTITLE4=梦乡
TTITLE5=小花
TTITLE6=西门庆的眼泪
TTITLE7=下辈子再爱你
TTITLE8=要抱抱
TTITLE9=为你等待
TTITLE10=爱了就别说分手
TTITLE11=我把爱情给丢了
EXTD=
EXTT0=
EXTT1=
EXTT2=
EXTT3=
EXTT4=
EXTT5=
EXTT6=
EXTT7=
EXTT8=
EXTT9=
EXTT10=
EXTT11=
PLAYORDER=
